<svg xmlns="http://www.w3.org/2000/svg" width="25" height="24" viewBox="0 0 25 24" fill="none">
  <g clip-path="url(#clip0_75_3516)">
    <path d="M22.547 18.7036C22.184 19.542 21.7544 20.3139 21.2566 21.0235C20.5781 21.9909 20.0226 22.6605 19.5945 23.0323C18.9308 23.6427 18.2197 23.9552 17.4582 23.973C16.9116 23.973 16.2523 23.8175 15.485 23.5019C14.7151 23.1879 14.0075 23.0323 13.3606 23.0323C12.6821 23.0323 11.9544 23.1879 11.1761 23.5019C10.3965 23.8175 9.76856 23.9819 9.28842 23.9982C8.55823 24.0293 7.8304 23.7078 7.1039 23.0323C6.64021 22.6279 6.06023 21.9346 5.36544 20.9524C4.61998 19.9035 4.00711 18.6873 3.52698 17.3006C3.01277 15.8029 2.755 14.3526 2.755 12.9485C2.755 11.3401 3.10255 9.95285 3.79868 8.79037C4.34577 7.85662 5.0736 7.12005 5.98453 6.57932C6.89546 6.0386 7.87973 5.76305 8.9397 5.74542C9.51968 5.74542 10.2802 5.92483 11.2254 6.27741C12.1679 6.63117 12.7731 6.81058 13.0384 6.81058C13.2367 6.81058 13.909 6.6008 15.0487 6.18259C16.1264 5.79475 17.036 5.63417 17.7812 5.69742C19.8004 5.86038 21.3174 6.65636 22.3262 8.09039C20.5204 9.18458 19.6271 10.7171 19.6448 12.6831C19.6611 14.2145 20.2167 15.4888 21.3085 16.5007C21.8033 16.9703 22.3559 17.3332 22.9707 17.591C22.8373 17.9776 22.6966 18.348 22.547 18.7036ZM17.916 0.480396C17.916 1.68067 17.4775 2.80136 16.6035 3.83866C15.5487 5.07181 14.2729 5.78438 12.8893 5.67194C12.8717 5.52795 12.8615 5.3764 12.8615 5.21714C12.8615 4.06488 13.3631 2.83173 14.2539 1.82347C14.6986 1.31296 15.2642 0.888487 15.9501 0.549875C16.6346 0.216314 17.2819 0.0318484 17.8908 0.000259399C17.9086 0.160717 17.916 0.321185 17.916 0.480381V0.480396Z" fill="#111928"/>
  </g>
  <defs>
    <clipPath id="clip0_75_3516">
      <rect width="24" height="24" fill="white" transform="translate(0.755005)"/>
    </clipPath>
  </defs>
</svg>