<svg xmlns="http://www.w3.org/2000/svg" width="25" height="24" viewBox="0 0 25 24" fill="none">
  <g clip-path="url(#clip0_75_3515)">
    <path d="M24.755 12C24.755 5.37258 19.3824 0 12.755 0C6.12758 0 0.755005 5.37258 0.755005 12C0.755005 17.9895 5.14321 22.954 10.88 23.8542V15.4688H7.83313V12H10.88V9.35625C10.88 6.34875 12.6716 4.6875 15.4126 4.6875C16.7251 4.6875 18.0988 4.92188 18.0988 4.92188V7.875H16.5856C15.095 7.875 14.63 8.80008 14.63 9.75V12H17.9581L17.4261 15.4688H14.63V23.8542C20.3668 22.954 24.755 17.9895 24.755 12Z" fill="#1877F2"/>
    <path d="M17.4261 15.4688L17.9581 12H14.63V9.75C14.63 8.80102 15.095 7.875 16.5856 7.875H18.0988V4.92188C18.0988 4.92188 16.7256 4.6875 15.4126 4.6875C12.6716 4.6875 10.88 6.34875 10.88 9.35625V12H7.83313V15.4688H10.88V23.8542C12.1224 24.0486 13.3876 24.0486 14.63 23.8542V15.4688H17.4261Z" fill="white"/>
  </g>
  <defs>
    <clipPath id="clip0_75_3515">
      <rect width="24" height="24" fill="white" transform="translate(0.755005)"/>
    </clipPath>
  </defs>
</svg>