<svg xmlns="http://www.w3.org/2000/svg" width="100" height="87" viewBox="0 0 100 87" fill="none">
  <mask id="mask0_75_5920" style="mask-type:luminance" maskUnits="userSpaceOnUse" x="0" y="0" width="100" height="87">
    <path d="M100 0H0V87H100V0Z" fill="white"/>
  </mask>
  <g mask="url(#mask0_75_5920)">
    <path d="M48.996 41.8004V16.0061L29.0566 -0.00164795V22.4859C6.60108 28.5841 10.8797 34.4762 14.324 36.996L0 43.7165L23.3483 54.6782L47.0015 43.7165L23.3483 32.7632L14.8016 36.7741C11.1338 31.9321 22.3021 26.1424 29.0566 23.2033V26.1179L48.996 41.8004Z" fill="#4B5563"/>
    <path d="M72.1651 60.8832L52.2257 45.1989V70.992L60.9449 77.9928C59.403 84.6055 50.6905 79.6398 44.4106 75.0107L49.4209 70.992V45.1989L29.4814 60.8832V87L43.4699 75.771C59.0147 91.3426 60.8845 81.4762 61.0897 78.1046L72.1658 87L72.1651 60.8832Z" fill="#1F2A37"/>
    <path d="M79.1699 34.0708C84.4713 9.90308 74.985 13.7297 71.7391 15.6298V0L51.799 16.0068V41.8002L71.7391 26.113V15.8366C78.7747 13.2398 78.9494 26.0236 78.4514 33.737L76.3528 32.7639L53.0043 43.7181L76.3528 54.6798L100.004 43.7181L79.1699 34.0708Z" fill="#6B7280"/>
  </g>
</svg>